<svg xmlns="http://www.w3.org/2000/svg" viewBox="0 0 48 48" fill="none" role="img" aria-label="抖音">
  <rect width="48" height="48" rx="11" fill="#000000"/>
  <!-- 青/红错位音符（抖音 App 图标经典造型） -->
  <g transform="translate(24 24) scale(0.92) translate(-24 -24)">
    <path fill="#25F4EE" d="M30.5 11.5h1.2v12.8c0 4.2-3.4 7.6-7.6 7.6-4.2 0-7.6-3.4-7.6-7.6s3.4-7.6 7.6-7.6c.6 0 1.2.1 1.7.2V13c-.5-.1-1.1-.2-1.7-.2-3.4 0-6.2 2.8-6.2 6.2s2.8 6.2 6.2 6.2 6.2-2.8 6.2-6.2V11.5Z" transform="translate(-1.2 0.8)"/>
    <path fill="#FE2C55" d="M32.2 11.5h1.2v12.8c0 4.2 3.4 7.6 7.6 7.6 1 0 1.9-.1 2.8-.3v-3.4c-.6.2-1.2.3-1.8.3-3.4 0-6.2-2.8-6.2-6.2V16.2c1-1.1 1.6-2.6 1.7-4.2h-1.3Z" transform="translate(1.2 -0.8)"/>
    <path fill="#FFFFFF" d="M32.2 11.5c0 1.9.9 3.6 2.4 4.7.8.7 1.9 1.1 3.1 1.2v-2.4c-.8-.1-1.5-.4-2.1-.9-1-.8-1.7-2.2-1.7-3.9 0-.4 0-.7.1-1.1h-.8Z"/>
  </g>
</svg>
