<svg xmlns="http://www.w3.org/2000/svg" viewBox="0 0 200 200" role="img" aria-label="????">
  <defs>
    <linearGradient id="bb-bg" x1="0%" y1="0%" x2="100%" y2="100%">
      <stop offset="0%" stop-color="#F0F4FF"/>
      <stop offset="100%" stop-color="#D4E0F8"/>
    </linearGradient>
    <linearGradient id="bb-hair" x1="0%" y1="0%" x2="100%" y2="100%">
      <stop offset="0%" stop-color="#4B5563"/>
      <stop offset="50%" stop-color="#1F2937"/>
      <stop offset="100%" stop-color="#111827"/>
    </linearGradient>
    <linearGradient id="bb-hair-hi" x1="0%" y1="0%" x2="0%" y2="100%">
      <stop offset="0%" stop-color="#9CA3AF" stop-opacity="0.5"/>
      <stop offset="100%" stop-color="#1F2937" stop-opacity="0"/>
    </linearGradient>
    <linearGradient id="bb-skin" x1="30%" y1="0%" x2="70%" y2="100%">
      <stop offset="0%" stop-color="#FFE5D4"/>
      <stop offset="100%" stop-color="#E8C4A8"/>
    </linearGradient>
    <linearGradient id="bb-eye" x1="0%" y1="0%" x2="0%" y2="100%">
      <stop offset="0%" stop-color="#4A3728"/>
      <stop offset="100%" stop-color="#1A120C"/>
    </linearGradient>
    <linearGradient id="bb-jacket" x1="0%" y1="0%" x2="100%" y2="100%">
      <stop offset="0%" stop-color="#6B8DD6"/>
      <stop offset="100%" stop-color="#3B5BDB"/>
    </linearGradient>
    <radialGradient id="bb-blush" cx="50%" cy="50%" r="50%">
      <stop offset="0%" stop-color="#F0A890" stop-opacity="0.35"/>
      <stop offset="100%" stop-color="#F0A890" stop-opacity="0"/>
    </radialGradient>
    <filter id="bb-soft" x="-20%" y="-20%" width="140%" height="140%">
      <feGaussianBlur in="SourceAlpha" stdDeviation="2" result="b"/>
      <feOffset dy="2" result="o"/>
      <feComponentTransfer><feFuncA type="linear" slope="0.22"/></feComponentTransfer>
      <feMerge><feMergeNode in="o"/><feMergeNode in="SourceGraphic"/></feMerge>
    </filter>
  </defs>
  <circle cx="100" cy="100" r="98" fill="url(#bb-bg)"/>
  <path d="M35 198c12-32 38-48 65-48s53 16 65 48H35z" fill="url(#bb-jacket)"/>
  <path d="M58 158c14-8 40-8 84 0v30H58V158z" fill="#3558C9"/>
  <ellipse cx="100" cy="172" rx="40" ry="7" fill="#2D4AAD" opacity="0.3"/>
  <path d="M44 92c-6-44 24-74 56-74s62 30 56 74c-2 26-14 46-30 54-10 5-20 8-26 8s-16-3-26-8c-16-8-28-28-30-54z" fill="url(#bb-hair)"/>
  <path d="M50 86c4-34 26-54 50-54s46 20 50 54c2 10-2 18-8 24-12 10-28 12-42 12s-30-2-42-12c-6-6-10-14-8-24z" fill="url(#bb-hair-hi)"/>
  <ellipse cx="100" cy="110" rx="36" ry="40" fill="url(#bb-skin)" filter="url(#bb-soft)"/>
  <path d="M56 78c10-16 28-24 44-24s34 8 44 24c-8-6-18-8-28-8h-32c-10 0-20 2-28 8z" fill="url(#bb-hair)"/>
  <path d="M64 84c6-8 16-12 26-12h20c10 0 20 4 26 12-8-2-16-4-36-4s-28 2-36 4z" fill="#374151" opacity="0.5"/>
  <ellipse cx="42" cy="112" rx="6" ry="9" fill="#E0C0A0"/>
  <ellipse cx="158" cy="112" rx="6" ry="9" fill="#E0C0A0"/>
  <g>
    <ellipse cx="76" cy="114" rx="10" ry="12" fill="#fff"/>
    <ellipse cx="76" cy="116" rx="7" ry="9" fill="url(#bb-eye)"/>
    <ellipse cx="74" cy="112" rx="2.8" ry="3.5" fill="#fff"/>
    <circle cx="78" cy="118" r="1.4" fill="#fff" opacity="0.65"/>
    <path d="M64 108 Q70 104 76 106" stroke="#4B5563" stroke-width="1.8" fill="none" stroke-linecap="round"/>
  </g>
  <g>
    <ellipse cx="124" cy="114" rx="10" ry="12" fill="#fff"/>
    <ellipse cx="124" cy="116" rx="7" ry="9" fill="url(#bb-eye)"/>
    <ellipse cx="122" cy="112" rx="2.8" ry="3.5" fill="#fff"/>
    <circle cx="126" cy="118" r="1.4" fill="#fff" opacity="0.65"/>
    <path d="M124 106 Q130 104 136 108" stroke="#4B5563" stroke-width="1.8" fill="none" stroke-linecap="round"/>
  </g>
  <ellipse cx="64" cy="124" rx="9" ry="5" fill="url(#bb-blush)"/>
  <ellipse cx="136" cy="124" rx="9" ry="5" fill="url(#bb-blush)"/>
  <path d="M98 126 L100 130 L102 126" stroke="#D4A088" stroke-width="1.2" fill="none"/>
  <path d="M92 136 Q100 140 108 136" stroke="#C97B6B" stroke-width="2" fill="none" stroke-linecap="round"/>
  <path d="M58 76 Q72 62 90 70" stroke="#9CA3AF" stroke-width="2" fill="none" stroke-linecap="round" opacity="0.45"/>
</svg>
