<svg xmlns="http://www.w3.org/2000/svg" viewBox="0 0 200 200" role="img" aria-label="鸭舌帽男生">
  <defs>
    <linearGradient id="cb-bg" x1="0%" y1="0%" x2="100%" y2="100%">
      <stop offset="0%" stop-color="#ECFEFF"/>
      <stop offset="100%" stop-color="#BAE6FD"/>
    </linearGradient>
    <linearGradient id="cb-cap" x1="0%" y1="0%" x2="100%" y2="100%">
      <stop offset="0%" stop-color="#64748B"/>
      <stop offset="100%" stop-color="#334155"/>
    </linearGradient>
    <linearGradient id="cb-cap-bill" x1="0%" y1="0%" x2="100%" y2="0%">
      <stop offset="0%" stop-color="#475569"/>
      <stop offset="100%" stop-color="#1E293B"/>
    </linearGradient>
    <linearGradient id="cb-hair" x1="0%" y1="0%" x2="100%" y2="100%">
      <stop offset="0%" stop-color="#6B5344"/>
      <stop offset="100%" stop-color="#3D2E24"/>
    </linearGradient>
    <linearGradient id="cb-skin" x1="30%" y1="0%" x2="70%" y2="100%">
      <stop offset="0%" stop-color="#FFE5D4"/>
      <stop offset="100%" stop-color="#E8C4A8"/>
    </linearGradient>
    <linearGradient id="cb-eye" x1="0%" y1="0%" x2="0%" y2="100%">
      <stop offset="0%" stop-color="#4A3728"/>
      <stop offset="100%" stop-color="#1A120C"/>
    </linearGradient>
    <linearGradient id="cb-hoodie" x1="0%" y1="0%" x2="100%" y2="100%">
      <stop offset="0%" stop-color="#94A3B8"/>
      <stop offset="100%" stop-color="#64748B"/>
    </linearGradient>
    <radialGradient id="cb-blush" cx="50%" cy="50%" r="50%">
      <stop offset="0%" stop-color="#F0A890" stop-opacity="0.3"/>
      <stop offset="100%" stop-color="#F0A890" stop-opacity="0"/>
    </radialGradient>
    <filter id="cb-soft" x="-20%" y="-20%" width="140%" height="140%">
      <feGaussianBlur in="SourceAlpha" stdDeviation="2" result="b"/>
      <feOffset dy="2" result="o"/>
      <feComponentTransfer><feFuncA type="linear" slope="0.22"/></feComponentTransfer>
      <feMerge><feMergeNode in="o"/><feMergeNode in="SourceGraphic"/></feMerge>
    </filter>
  </defs>
  <circle cx="100" cy="100" r="98" fill="url(#cb-bg)"/>
  <path d="M35 198c12-32 38-48 65-48s53 16 65 48H35z" fill="url(#cb-hoodie)"/>
  <path d="M56 158c14-8 40-8 88 0v30H56V158z" fill="#475569"/>
  <ellipse cx="100" cy="172" rx="40" ry="7" fill="#334155" opacity="0.28"/>
  <!-- 帽 -->
  <path d="M28 72c18-14 68-18 96-4 8 4 10 14 8 22l-4 14H36l-4-14c-2-10 2-18 10-22 6-4 14-6 22-6z" fill="url(#cb-cap)"/>
  <path d="M36 68c20-16 56-18 80-8 4 2 6 8 4 14" fill="#475569"/>
  <path d="M32 88c28 8 76 8 104 0l8 6H24l8-6z" fill="url(#cb-cap-bill)"/>
  <path d="M40 76c16-10 48-12 72-4" stroke="#94A3B8" stroke-width="2" fill="none" stroke-linecap="round" opacity="0.4"/>
  <!-- 鬓发 -->
  <path d="M52 88c-4 16 0 28 8 34M148 88c4 16 0 28-8 34" stroke="url(#cb-hair)" stroke-width="8" stroke-linecap="round" fill="none"/>
  <ellipse cx="100" cy="118" rx="36" ry="38" fill="url(#cb-skin)" filter="url(#cb-soft)"/>
  <g>
    <ellipse cx="76" cy="122" rx="10" ry="12" fill="#fff"/>
    <ellipse cx="76" cy="124" rx="7" ry="9" fill="url(#cb-eye)"/>
    <ellipse cx="74" cy="120" rx="2.8" ry="3.5" fill="#fff"/>
    <circle cx="78" cy="126" r="1.4" fill="#fff" opacity="0.65"/>
    <path d="M64 116 Q70 112 76 114" stroke="#6B5344" stroke-width="1.5" fill="none" stroke-linecap="round"/>
  </g>
  <g>
    <ellipse cx="124" cy="122" rx="10" ry="12" fill="#fff"/>
    <ellipse cx="124" cy="124" rx="7" ry="9" fill="url(#cb-eye)"/>
    <ellipse cx="122" cy="120" rx="2.8" ry="3.5" fill="#fff"/>
    <circle cx="126" cy="126" r="1.4" fill="#fff" opacity="0.65"/>
    <path d="M124 114 Q130 112 136 116" stroke="#6B5344" stroke-width="1.5" fill="none" stroke-linecap="round"/>
  </g>
  <ellipse cx="64" cy="132" rx="8" ry="4.5" fill="url(#cb-blush)"/>
  <ellipse cx="136" cy="132" rx="8" ry="4.5" fill="url(#cb-blush)"/>
  <path d="M98 130 L100 134 L102 130" stroke="#D4A088" stroke-width="1.2" fill="none"/>
  <path d="M90 140 Q100 146 110 140" stroke="#C97B6B" stroke-width="2" fill="none" stroke-linecap="round"/>
</svg>
