<svg xmlns="http://www.w3.org/2000/svg" viewBox="0 0 200 200" role="img" aria-label="??????">
  <defs>
    <linearGradient id="pg-bg" x1="0%" y1="0%" x2="100%" y2="100%">
      <stop offset="0%" stop-color="#FFF0F7"/>
      <stop offset="100%" stop-color="#FFD6E8"/>
    </linearGradient>
    <linearGradient id="pg-hair" x1="0%" y1="0%" x2="100%" y2="100%">
      <stop offset="0%" stop-color="#FFB8D4"/>
      <stop offset="50%" stop-color="#FF7EB3"/>
      <stop offset="100%" stop-color="#FF5C9A"/>
    </linearGradient>
    <linearGradient id="pg-hair-hi" x1="0%" y1="0%" x2="0%" y2="100%">
      <stop offset="0%" stop-color="#FFE8F2" stop-opacity="0.9"/>
      <stop offset="100%" stop-color="#FF7EB3" stop-opacity="0"/>
    </linearGradient>
    <linearGradient id="pg-skin" x1="30%" y1="0%" x2="70%" y2="100%">
      <stop offset="0%" stop-color="#FFE8DC"/>
      <stop offset="100%" stop-color="#F5C9B0"/>
    </linearGradient>
    <linearGradient id="pg-eye" x1="0%" y1="0%" x2="0%" y2="100%">
      <stop offset="0%" stop-color="#5C4033"/>
      <stop offset="100%" stop-color="#2D1F14"/>
    </linearGradient>
    <radialGradient id="pg-blush" cx="50%" cy="50%" r="50%">
      <stop offset="0%" stop-color="#FF9EB8" stop-opacity="0.55"/>
      <stop offset="100%" stop-color="#FF9EB8" stop-opacity="0"/>
    </radialGradient>
    <linearGradient id="pg-top" x1="0%" y1="0%" x2="100%" y2="100%">
      <stop offset="0%" stop-color="#FF9EC4"/>
      <stop offset="100%" stop-color="#FF6B9D"/>
    </linearGradient>
    <filter id="pg-soft" x="-20%" y="-20%" width="140%" height="140%">
      <feGaussianBlur in="SourceAlpha" stdDeviation="2" result="b"/>
      <feOffset dy="2" result="o"/>
      <feComponentTransfer><feFuncA type="linear" slope="0.25"/></feComponentTransfer>
      <feMerge><feMergeNode in="o"/><feMergeNode in="SourceGraphic"/></feMerge>
    </filter>
  </defs>
  <circle cx="100" cy="100" r="98" fill="url(#pg-bg)"/>
  <!-- ?? -->
  <path d="M35 198c12-32 38-48 65-48s53 16 65 48H35z" fill="url(#pg-top)"/>
  <path d="M52 158c16-10 44-10 96 0v28H52V158z" fill="#FF5C8A"/>
  <ellipse cx="100" cy="172" rx="42" ry="8" fill="#FF4A82" opacity="0.35"/>
  <!-- ?? -->
  <path d="M42 95c-8-42 22-72 58-72s66 30 58 72c-4 28-18 48-36 56-8 4-18 6-22 6s-14-2-22-6c-18-8-32-28-36-56z" fill="url(#pg-hair)"/>
  <path d="M48 88c6-38 28-58 52-58s46 20 52 58c2 12-4 22-12 28-14 10-32 14-40 14s-26-4-40-14c-8-6-14-16-12-28z" fill="url(#pg-hair-hi)"/>
  <!-- ? -->
  <ellipse cx="100" cy="108" rx="38" ry="42" fill="url(#pg-skin)" filter="url(#pg-soft)"/>
  <!-- ?? -->
  <path d="M58 72c8-18 24-28 42-28s34 10 42 28c-6-4-14-6-22-6h-40c-8 0-16 2-22 6z" fill="url(#pg-hair)"/>
  <path d="M62 78c6-10 16-16 26-16h24c10 0 20 6 26 16-8-2-16-4-38-4s-30 2-38 4z" fill="#FF8CB4" opacity="0.6"/>
  <path d="M78 68c4-8 12-12 22-12s18 4 22 12c-6-2-12-4-22-4s-16 2-22 4z" fill="#FFE0EE"/>
  <!-- ? -->
  <g>
    <ellipse cx="78" cy="112" rx="11" ry="13" fill="#fff"/>
    <ellipse cx="78" cy="114" rx="8" ry="10" fill="url(#pg-eye)"/>
    <ellipse cx="76" cy="110" rx="3" ry="4" fill="#fff" opacity="0.95"/>
    <circle cx="80" cy="116" r="1.5" fill="#fff" opacity="0.7"/>
    <path d="M66 106 Q72 102 78 104" stroke="#FF7EB3" stroke-width="1.5" fill="none" stroke-linecap="round"/>
  </g>
  <g>
    <ellipse cx="122" cy="112" rx="11" ry="13" fill="#fff"/>
    <ellipse cx="122" cy="114" rx="8" ry="10" fill="url(#pg-eye)"/>
    <ellipse cx="120" cy="110" rx="3" ry="4" fill="#fff" opacity="0.95"/>
    <circle cx="124" cy="116" r="1.5" fill="#fff" opacity="0.7"/>
    <path d="M122 104 Q128 102 134 106" stroke="#FF7EB3" stroke-width="1.5" fill="none" stroke-linecap="round"/>
  </g>
  <!-- ?? -->
  <ellipse cx="64" cy="122" rx="10" ry="6" fill="url(#pg-blush)"/>
  <ellipse cx="136" cy="122" rx="10" ry="6" fill="url(#pg-blush)"/>
  <!-- ?? -->
  <path d="M98 124 L100 128 L102 124" stroke="#E8A090" stroke-width="1.2" fill="none" stroke-linecap="round"/>
  <path d="M90 134 Q100 142 110 134" stroke="#E07A6B" stroke-width="2.2" fill="none" stroke-linecap="round"/>
  <!-- ???? -->
  <path d="M52 82 Q68 68 88 76" stroke="#FFE8F2" stroke-width="2.5" fill="none" stroke-linecap="round" opacity="0.7"/>
</svg>
